<?xml version="1.0" standalone="no"?>
<!DOCTYPE svg PUBLIC "-//W3C//DTD SVG 20010904//EN"
 "http://www.w3.org/TR/2001/REC-SVG-20010904/DTD/svg10.dtd">
<svg version="1.0" xmlns="http://www.w3.org/2000/svg"
 width="512.000000pt" height="512.000000pt" viewBox="0 0 512.000000 512.000000"
 preserveAspectRatio="xMidYMid meet">
<metadata>
Created by potrace 1.14, written by Peter Selinger 2001-2017
</metadata>
<g transform="translate(0.000000,512.000000) scale(0.100000,-0.100000)"
fill="#000000" stroke="none">
<path d="M720 2722 c0 -1072 2 -1256 15 -1305 58 -225 311 -341 518 -239 83
41 138 97 179 180 l33 67 3 1272 2 1273 -375 0 -375 0 0 -1248z"/>
<path d="M2185 2558 l0 -1413 255 0 c246 0 257 1 301 23 83 41 144 110 174
197 15 46 17 147 17 1305 -1 690 -1 1265 -1 1278 l-1 22 -373 0 -373 0 1
-1412z"/>
<path d="M3649 3958 c0 -18 -1 -1709 0 -1729 1 -14 28 -15 244 -14 139 1 256
7 275 13 86 28 159 95 200 182 l26 55 1 753 1 752 -373 0 c-291 0 -373 -3
-374 -12z"/>
</g>
</svg>
