<svg width="96" height="82" viewBox="0 0 96 82" fill="none" xmlns="http://www.w3.org/2000/svg">
<path d="M44.9219 48.3843L44.5656 47.5341C44.3031 47.5341 44.1681 47.5296 44.0481 47.5341C43.9056 47.5432 43.7406 47.2719 43.7406 47.2719C43.7406 47.2719 43.5119 47.5206 43.0806 47.4799L42.9606 50.1116C42.9606 50.1116 43.4631 50.2111 43.4819 50.3513C43.4931 50.4643 43.3806 50.6407 43.2494 50.6407C43.1219 50.6407 43.0356 50.4598 43.0356 50.4598L42.9269 50.4417L42.3232 61.032L42.2557 50.1568L41.7982 49.9533L41.6107 51.0386L41.5919 60.7335L40.9844 63.1211L40.9694 66.2367L41.1869 67.2948L41.1944 69.0629L40.9132 70.3154L40.8869 74.9413L40.4107 82L40.1219 77.243L39.8257 76.2617L39.8407 68.2263L39.6982 66.707C39.6982 66.707 39.5182 71.6629 39.4582 73.5124L39.0045 65.468L39.057 60.1909L38.6707 58.2736L38.6632 54.0366L38.0595 51.8932V48.018C38.0595 48.018 37.4107 47.81 37.1632 47.5567C36.9307 47.3216 36.6307 46.9734 36.6307 46.9734L35.8208 46.996L33.2258 45.3139L32.8733 45.2596L32.4346 44.4592L32.9258 45.0652C32.9258 45.0652 34.7258 45.5355 35.382 45.6621C35.6445 45.7118 36.012 45.7661 35.8433 45.1466C35.832 45.1014 35.8658 45.029 35.8883 44.9747C36.0682 44.5723 36.1245 44.2422 35.6183 44.2105C35.5733 44.206 35.4345 44.102 35.4233 44.0613C35.382 43.8714 35.3483 43.5503 35.172 43.5639C34.842 43.5956 34.4708 43.374 34.257 43.2971C34.0658 43.2293 33.882 43.2971 33.882 43.2971C33.882 43.2971 33.6683 43.0213 33.567 42.9851C33.3983 42.9354 33.3083 42.9761 33.177 42.9625C32.6446 42.9037 32.5658 43.2383 32.4083 43.7403C31.8833 42.8811 31.6546 43.1886 31.2758 42.9625C31.0771 42.8404 30.7096 42.6867 30.7096 42.6867C30.7096 42.6867 30.4283 42.8359 30.2858 42.9806C30.2183 43.0484 30.0121 43.0529 29.9746 42.9942C29.7796 42.6776 29.5021 42.5013 29.1271 42.5555C28.8196 42.6007 28.5234 42.3973 28.5234 42.3973L28.5009 43.3604L28.0734 44.9114L27.9609 48.2667L27.7284 49.6413L27.6609 42.4244L27.4996 42.4154L27.5146 52.151L27.5821 52.3092L27.5971 53.4849L27.2334 54.5205L27.1921 55.6012L27.3384 55.9539L26.7834 69.2844L26.6896 60.1909L26.5434 59.8156L26.3822 65.4815L25.9209 67.2496L25.9622 71.7353L25.5084 72.8839V74.5705L25.5684 74.8464L25.1784 80.5304L24.8784 74.3128L24.5484 72.2824L24.5184 68.3439L24.2859 67.3898L24.2897 63.0442L23.9334 60.0688V53.5392L23.7084 52.5308L23.7272 48.6103L23.5397 47.6607L22.9322 60.625L22.8235 44.4999L22.5835 44.2196C22.5835 44.2196 22.5797 42.2978 22.5797 41.4251C21.6985 41.6105 20.9522 41.2216 20.1947 40.8282C19.846 40.6473 18.9535 40.7513 18.691 40.5885C18.4248 40.4212 18.1248 40.1499 18.1248 40.1499C18.1248 40.1499 17.566 40.2177 17.2435 40.0911C16.6061 39.9916 16.4748 39.7113 16.1936 39.3812C15.2861 38.3004 14.2661 37.5724 12.9911 37.4594C12.5786 37.4232 12.2599 37.17 11.9599 36.8127C11.4499 36.2023 10.8199 35.9536 10.0999 36.0621C9.93116 36.0892 9.73991 36.0666 9.57867 35.9943C9.00492 35.7365 8.43868 35.4471 7.87244 35.1668C7.66245 35.0582 7.24995 34.796 7.24995 34.796C7.24995 34.796 7.06995 34.9135 6.97996 34.9814C6.93871 35.0175 6.81871 34.9723 6.76996 34.9181C6.37621 34.4613 6.00872 33.9956 5.97122 33.254C5.95622 32.9917 6.00872 32.8425 5.91872 32.734C5.62248 32.3722 5.25123 31.9426 5.25498 31.4362C5.25873 30.8664 5.22873 30.0887 5.24373 29.5189C5.26998 28.5648 5.62998 27.9001 6.28622 27.3439C6.61621 27.0635 6.94621 26.8872 7.3212 26.8465C7.76369 26.8013 8.25869 26.9143 8.67493 26.9414C9.79616 27.0138 9.52242 27.1494 9.81491 27.1947C10.0287 27.2308 10.3437 27.2308 10.5574 27.2127C12.1024 27.1359 12.2411 27.3168 13.0699 28.0267C13.8236 28.6688 14.7011 28.2618 15.1323 28.6326C15.2711 28.7547 15.6348 29.2928 16.0811 29.4782C16.7523 29.7586 16.951 29.6953 17.3598 29.8264C18.5935 30.2243 18.886 30.2334 19.576 30.1927L19.6398 30.3193L19.9248 30.369L20.1385 30.1565L22.2647 30.2062L22.1372 27.8503L21.7097 26.2179L22.2947 23.3284V19.928L22.3772 19.8466L22.381 19.4667L22.2947 19.3401C22.2947 19.1321 22.2985 18.9965 22.2985 18.9965L22.3847 18.9784L22.3885 18.4086L22.276 18.273L22.291 17.0475L22.8535 15.5508L22.9135 14.158L23.6634 13.43C23.6634 13.43 24.0609 13.3396 24.1997 13.2763C24.7697 13.014 25.0734 12.8015 25.0734 12.8015C26.1947 12.6839 26.7721 12.3538 26.7721 12.3538L26.9896 11.4675C27.0759 11.8202 27.2896 12.797 27.2896 12.797L27.7059 12.607C27.7059 12.607 27.9459 13.1497 28.1971 13.1904L28.3734 12.2815L28.6434 12.3855L28.8684 9.45076L29.2209 14.7007L29.3671 15.1122C29.3671 15.1122 29.4684 14.2214 29.4984 14.045C29.5246 14.5379 29.7083 16.0211 29.7083 16.0211C29.7083 16.0211 30.2483 17.2465 30.4058 17.8615C30.4058 17.8615 30.2296 18.5398 30.0908 19.5662C29.8996 19.8602 29.5696 20.1405 29.5996 20.9816C29.6296 21.7639 29.7233 22.4105 29.7233 22.4105L29.4534 22.7949L29.4834 28.6507L28.7184 32.1733L30.7021 32.3768L31.4146 32.7792L32.3408 32.7475L34.1258 33.2856L34.4558 33.1952L35.1645 33.7062L35.6033 33.661C35.6033 33.661 35.667 33.7604 35.7383 33.7876L35.6445 34.2669L35.7683 34.4704L36.117 34.5201L36.8032 35.221L37.227 34.9542L36.9607 28.09L37.2007 27.5383L37.197 25.508L36.4395 22.8536L36.4207 18.0017L36.2145 17.7123L36.1545 20.1586L35.862 16.0211L35.517 15.3563L35.5133 14.4294L35.4233 14.3706C35.427 14.1852 35.5095 13.6425 35.5095 13.6425L35.3745 13.4255L35.5995 10.6898C35.5995 10.6898 35.982 10.5179 36.3157 9.50954C36.6007 8.64586 36.882 8.35194 37.3095 7.90879C37.5832 7.62391 37.8195 7.28025 38.1045 7.01345C38.4232 6.71049 38.5057 6.37135 39.1207 6.19499C39.6307 6.05481 40.0057 5.38557 40.0057 5.38557L40.1857 5.6388L40.6094 4.11492L40.9057 3.99283L41.3332 0L41.5657 4.96956L41.7644 5.01026L41.9557 3.27385L42.2182 6.43013L42.3757 6.50248L42.4319 5.54384L42.6419 5.21374L42.7919 3.2015L42.9719 5.97342L43.0694 6.3623L43.1744 5.92368L43.2906 7.36164L43.6881 7.65556L43.6919 8.22532L44.0894 8.97596C44.0894 8.97596 44.1494 9.87581 44.1419 10.111C44.1344 10.3461 44.1194 10.8118 44.1194 10.8118L44.2619 11.576L44.0294 12.0599L44.0219 12.3583L44.1119 12.4488L44.1306 15.18L43.8944 16.5682L43.9881 17.3234L43.5756 26.4214L43.5006 19.7064L43.2156 21.2529L43.1969 27.9091L43.5644 29.3923L43.5906 36.8127C43.5906 36.8127 43.8306 36.668 44.1419 36.6816C44.5956 36.7042 44.9781 37.1473 45.6381 37.283C45.8556 37.4684 46.1668 37.907 46.4068 38.0472C46.4743 38.0834 46.9281 38.1964 46.9281 38.1964L47.3893 38.7164C47.8318 38.6712 48.1356 38.7752 48.4431 38.9606C49.0318 39.146 49.5305 39.4671 49.8568 40.0911C50.078 40.5207 50.3818 40.7694 50.5955 40.9186C50.8093 41.0723 51.773 41.0452 51.773 41.0452L51.7618 33.9911L51.263 31.6849L51.218 26.5028L51.7618 25.1869L51.713 20.8097L51.5555 20.1676L51.5668 18.6076L51.4318 18.8156C51.4318 18.8156 51.3343 23.6812 51.2855 25.3814C51.2668 25.3814 50.8955 16.4642 50.8955 16.4642L50.5618 15.6367C50.5618 15.6367 50.873 14.6057 50.873 14.4294C50.873 14.0088 50.7418 13.8144 50.7418 13.8144L50.6968 12.2679C50.6968 12.2679 50.9518 11.6077 51.0643 10.7711C51.1393 10.1923 51.143 9.50502 51.143 9.50502L52.0842 8.12132L52.1105 7.08581L52.5005 6.53413L52.6955 2.02129L52.898 5.42175L53.303 7.23955L53.5017 6.98632V5.80611L53.7192 6.27186L53.798 4.30936L53.8917 6.04125L54.218 6.76927L54.6605 6.62909L55.6129 7.3119L55.9692 7.29833L56.1604 6.46631L56.3667 7.75957L56.6817 8.02184L56.7904 8.45142C56.7904 8.45142 57.2329 8.77699 57.3154 8.88552C57.5329 9.27892 57.9454 10.6626 57.9454 10.6626L58.0542 12.2679C57.3717 14.0405 57.2929 14.9042 57.3004 15.9804C57.3042 17.242 57.1129 20.0229 57.1129 20.0229L57.5292 22.3291L57.2329 36.8489L56.9892 38.2055C56.9892 38.2055 56.9854 31.2779 56.9854 28.1623L56.8992 27.9679L56.5692 29.8128L56.5617 39.3857L56.3929 41.1447L56.3704 42.9308C56.3704 42.9308 56.5804 43.1253 56.8804 43.2022C57.5592 43.8533 58.3841 43.998 59.2991 43.8171C59.3591 43.8081 59.4266 43.8126 59.4904 43.8081C59.8354 43.781 60.0866 43.9483 60.2104 44.3598C60.3229 44.7441 60.5404 44.8481 60.8629 44.8662C61.2379 44.8933 61.3991 44.8436 61.7666 44.9431C62.0141 45.0109 62.0516 45.3455 62.7116 45.3455C63.1391 45.3681 63.4878 45.5852 63.8366 45.861C64.0991 46.069 64.7403 46.4353 64.7403 46.4353L64.6278 41.2758L64.7028 36.5233L64.4966 35.4064L64.3803 35.2391L64.1403 38.5898L63.5853 34.0589L63.5553 28.6869L63.8853 27.2851V25.1462L63.6191 23.5455L63.6566 22.9124L63.4953 22.7994L63.4841 22.3879L63.4091 22.2387L63.8816 19.2633L64.5378 18.5578L65.0703 16.9028L65.2015 17.5314L65.3328 17.6354L65.5315 13.6064L65.944 16.6813L66.244 16.9978L66.4803 16.8621L66.799 11.472L67.0578 16.4778L67.2378 14.4474L67.3728 16.8757L67.534 16.627L67.6653 16.93L67.8378 16.939L67.9578 17.1968L68.2428 17.1787C68.4902 17.4816 68.8502 17.5811 69.004 17.7123C69.2477 17.9248 69.5815 17.9836 69.5815 17.9836C69.5815 17.9836 70.069 18.8879 70.2902 19.5165C70.4627 20.0094 70.7177 21.0494 70.7177 21.0494L70.654 22.7858L70.8152 23.4098L70.399 24.7754L70.8827 25.6346L70.294 41.7732L70.0615 31.1875L69.9302 31.816L69.9452 34.7281L69.4165 36.2068C69.4165 36.2068 69.3902 41.1583 69.4127 43.4056C69.4202 44.1834 69.3902 44.6266 69.3902 44.6266L68.7977 46.4037L68.7902 47.5974L69.244 47.9004C69.9752 47.7467 70.7665 47.7919 71.4077 48.3029C71.6477 48.4973 71.9477 48.5742 72.2289 48.6601C72.6227 48.7867 72.5327 48.6691 72.9339 48.7324C73.0727 48.755 73.5602 49.1168 73.6989 49.0264C73.8414 48.9314 73.9727 48.4611 74.1827 48.4114C74.3927 48.3662 74.6177 48.8003 74.6177 48.9902C74.6214 49.1665 74.6327 49.4876 74.6327 49.4876C74.6327 49.4876 75.1501 49.8403 75.3939 49.8358C76.4589 49.8358 77.0176 50.3151 77.9176 50.5231C78.5701 50.6723 78.8588 50.7175 79.5001 50.9301C79.7251 51.0069 80.1376 51.0567 80.3551 51.2918C80.4451 51.3868 80.4151 51.64 80.8801 51.7983C81.135 51.8887 81.8813 51.8797 82.3575 52.2233C83.2688 52.8835 83.8913 53.0825 84.54 53.0237C84.7687 53.0056 85.05 53.0418 85.2375 53.1955C85.8337 53.6794 86.49 53.8919 87.1837 53.9824C87.3374 54.005 87.5624 54.1497 87.7124 54.1994C87.7124 54.2311 87.4462 54.3938 87.1537 54.3893C86.94 54.3848 86.7037 54.222 86.5687 54.2265C85.8337 54.2491 85.9425 54.1677 85.4587 54.0411C85.2 53.9733 85.17 54.0773 85.0012 54.326C84.84 54.5747 84.5737 54.7646 84.36 54.7194C84.1125 54.6606 83.91 54.3396 83.4863 54.2672C82.5 54.0909 82.71 53.8015 81.9038 53.4262C81.6938 53.3312 81.0863 53.2589 80.8576 53.2408C79.9463 53.2408 80.3138 52.7614 79.7888 52.7117C79.2676 52.6665 79.2526 52.255 79.0351 52.1691C78.8551 52.0967 78.8101 52.2324 78.2813 52.2052C78.1688 52.1962 77.9963 52.2279 77.9138 52.1419C77.1414 51.3777 76.1851 51.5586 75.3076 51.337C74.4264 51.2828 74.2239 50.9889 73.7552 50.9662C73.4289 50.9482 72.8289 51.3054 72.8289 51.3054C72.8289 51.3054 72.8027 51.6445 72.8402 51.7757C72.9827 52.3138 73.3802 52.5534 73.9764 52.4449C74.3439 52.3771 74.6926 52.2776 74.9064 52.7976C74.9251 52.8428 74.9926 52.87 75.0414 52.8745C75.2139 52.9152 75.4201 52.87 75.5814 52.9061C75.7801 52.9514 75.9301 53.078 76.1101 53.1232C79.8976 54.0502 79.8938 54.5431 80.7226 54.5431C81.1988 54.5431 81.36 54.6019 82.0838 54.6019C82.185 54.6019 82.3688 55.1354 83.6625 55.5017C83.9738 55.6283 84.0938 55.7188 85.215 55.7188C85.4587 55.7188 86.3475 56.4061 86.7937 56.4332C86.895 56.4377 87.1387 56.4151 87.1425 56.2207C87.15 56.0624 87.015 55.9087 86.9137 55.8499C86.67 55.7097 86.4037 55.6419 86.1525 55.5243C86.025 55.4655 85.9012 55.3796 85.7887 55.2756C85.7437 55.2349 85.7062 55.1671 85.7287 55.0269C85.7512 54.8913 85.9612 54.9862 85.9612 54.9862C85.9612 54.9862 86.3887 55.4384 87.4912 55.6374C87.7949 55.7956 88.5449 56.4513 88.8599 56.5689C89.6924 56.5644 89.9549 56.7181 90.1574 56.9261C90.2624 57.0346 90.3674 57.0753 90.5849 57.1205C90.8586 57.1839 91.4436 57.0346 91.4099 57.1974C91.3836 57.4868 91.2449 57.6541 90.9599 57.5727C90.7611 57.5185 90.5549 57.4642 90.3749 57.3557C89.9324 57.0934 89.5049 56.8402 88.9874 56.9216C88.8149 56.9442 88.6199 56.804 88.4474 56.7091C88.0649 56.492 87.6974 56.4513 87.3149 56.7271C86.9025 57.0301 86.475 56.9397 86.055 56.7452C85.7475 56.605 85.1362 56.2478 85.1362 56.2478C85.1362 56.2478 84.4612 56.2162 84.2025 56.3202C84.21 56.085 84.1837 55.7595 83.8875 55.8454C83.5913 55.9313 83.73 56.1348 83.85 56.2569C83.625 56.2795 83.3625 56.4423 83.1375 56.4197C82.9125 56.3925 82.7213 56.18 82.4963 55.8363C82.4025 55.6961 82.26 55.5107 82.125 55.4836C82.0425 55.4701 81.9938 55.5921 81.885 55.5967C81.7875 55.6012 81.5513 55.262 81.3713 55.2349C81.0188 55.1761 80.7526 54.9726 80.5576 54.8822C80.1901 54.7239 79.9276 54.7646 79.9276 54.7646C79.9276 54.7646 79.6163 54.525 79.4588 54.4571C79.0126 54.2627 78.9451 54.3486 78.9226 54.9093C78.9601 55.4158 78.7651 55.5921 78.6526 55.877C78.6338 55.9177 78.4651 55.9584 78.3038 55.7549C78.3076 55.7052 78.3151 55.66 78.3188 55.6102C78.4388 55.5107 78.6113 55.4429 78.6713 55.2982C78.7388 55.149 78.7576 55.0179 78.7163 54.846C78.6976 54.7601 78.6563 54.5476 78.5513 54.5024C78.4876 54.4752 78.2813 54.6561 78.2176 54.6335C78.1238 54.6064 78.0751 54.2808 77.9326 54.4255C77.7901 54.5702 77.8839 54.7239 77.9063 54.8596C77.9813 55.2982 77.8051 55.6374 77.4639 55.66C77.2614 55.669 77.1376 55.5741 77.1939 55.2937C77.2126 55.1671 77.2351 55.045 77.2576 54.9184C77.3214 54.5114 77.1901 54.2944 77.1901 54.2944C77.1901 54.2944 76.0801 53.8286 75.7689 53.7608C75.5889 53.7201 75.3676 53.8286 75.3339 53.9597C75.2139 54.3984 75.2851 54.4978 75.4689 54.7872C75.5101 54.8506 75.5589 54.941 75.6226 54.9907C75.7951 55.1219 75.9564 55.2304 75.8026 55.5334C75.6601 55.8228 75.4989 55.9855 75.2064 55.8861C74.8951 55.7459 74.7864 55.6238 74.2914 55.6148C74.1339 55.5605 73.9652 55.4881 73.8489 55.357C73.4439 54.9093 72.9302 54.7782 72.3939 54.7782C72.2589 54.7782 72.1277 54.6561 72.0489 54.5295C71.7977 54.1135 71.5989 54.014 71.2202 54.005C70.924 53.9914 70.4815 54.014 70.189 53.9733C69.9415 53.9959 69.5927 53.91 69.5927 53.91L69.5477 53.5573L68.959 53.5211L69.1802 55.9087L68.4452 70.1707L68.2428 59.8382L68.1302 59.8156L67.939 60.7245V66.9466L67.4215 68.8142L66.8215 77.9574L66.3415 68.8458L66.3003 63.8943L65.929 62.1444L65.944 59.4719L66.1653 58.4138V53.711L65.8015 52.4494C65.8015 52.4494 65.734 52.4449 65.4528 52.5353C65.3365 52.5715 65.0703 52.472 65.0703 52.472L64.9503 57.5863L64.8341 52.5082C64.5378 52.7072 64.4028 52.8202 64.2191 52.9921C63.6116 53.5709 63.0003 53.8512 62.5503 53.7789C62.2691 53.7291 62.1041 53.9236 61.9428 53.9417C61.8603 53.9507 61.7479 53.8964 61.7253 53.8286C61.6054 53.4714 61.3579 53.4307 61.1066 53.3583C60.6454 53.2272 60.1916 53.0689 59.7304 52.9287C59.0141 52.7162 58.2942 52.6439 57.5854 53.0056C57.5217 53.0373 57.4279 53.078 57.3642 53.0328C57.0417 52.7795 56.7342 52.9287 56.4379 53.0237C55.8904 53.2046 55.8529 52.7117 55.8529 52.7117L55.7179 52.558L55.2679 54.6697L55.2829 64.3149L54.6417 66.1508V68.674L53.993 75.1991L53.5692 66.5532L53.6255 61.5972L53.2092 60.2271C53.2092 60.2271 52.9392 65.6127 52.823 67.7877L52.478 60.322L52.0655 58.5359L52.328 56.9216L52.343 51.6445L52.1367 51.5405C52.1367 51.5405 51.8593 50.6045 51.6718 50.6045C51.4843 50.6045 49.9468 50.4915 49.9468 50.4915C49.9468 50.4915 48.8256 50.9075 48.3081 51.1697C47.9856 51.328 47.8206 51.2421 47.4831 51.2421C47.4381 51.2421 47.3256 51.3732 47.1943 51.4863C46.9693 51.6807 46.7706 51.7033 46.5793 51.4456C46.3131 51.0793 46.0656 51.0883 46.0656 51.0883C46.0656 51.0883 45.6194 51.3099 45.5744 51.2963C45.4056 51.2511 45.2406 51.1969 45.0831 51.1155C45.0644 51.1064 45.0869 50.8261 45.0869 50.8261L45.4769 50.5728L45.7356 50.6859L45.8931 50.8351L46.1331 50.7809L46.3468 50.9527C46.3468 50.9527 46.4856 50.9165 46.5306 50.9256C46.5568 50.9346 46.6018 50.401 46.6018 50.401L46.6581 50.9753C46.9131 51.0476 46.9656 50.6271 46.9656 50.4372C46.9656 50.193 46.8418 49.9217 46.8418 49.9217L46.7443 49.881L46.5868 50.089L46.4481 49.7589L46.0356 49.4333L45.3831 49.4017L44.9219 48.3843ZM45.1581 49.5419C45.1581 49.5419 45.6493 49.881 45.5443 49.9805C45.4994 50.0167 45.2894 49.7408 45.0756 49.7453C44.9106 49.7499 44.6931 50.0212 44.6931 50.0212L44.3781 50.0167L43.9656 50.4824L43.7294 50.4734L43.5719 50.6633L43.6131 50.3874C43.6131 50.3874 44.0519 49.9036 44.1006 49.8132C44.2019 49.6232 44.2694 48.9992 44.2694 48.9992C44.2694 48.9992 44.4269 49.058 44.6406 49.058L44.8281 48.6013L45.1169 49.1123L45.1581 49.5419ZM59.0291 48.3797L58.9804 49.049C58.9804 49.049 59.2691 49.1123 59.5016 49.1439C59.6141 49.1575 59.7191 49.3926 59.7079 49.9579C59.9329 50.1071 60.1804 50.0709 60.3341 50.0257C60.5329 49.9624 60.7204 49.8358 60.9191 49.8041C61.2154 49.7499 61.5716 49.6232 61.8116 49.7634C62.7903 50.3422 63.7766 50.1568 64.7703 50.0167C64.7853 49.8403 64.7816 49.5871 64.7778 49.4831C64.7703 49.1665 64.6691 49.266 64.3016 49.3655C64.0091 49.4424 63.8403 49.3112 63.6828 49.0444C63.5328 48.7912 63.3716 48.547 63.2103 48.3074C63.1916 48.2848 63.1391 48.2938 63.0903 48.2893C63.0641 48.4249 63.0416 48.5516 63.0266 48.642C62.6628 48.7053 62.7453 48.3209 62.5841 48.2486C62.3928 48.1672 62.1528 48.2486 61.9728 48.1446C61.4591 47.8461 60.9566 47.5206 60.3791 47.914C60.3491 47.9321 60.3004 47.9321 60.2629 47.914C60.0304 47.7964 59.5316 47.6743 59.5316 47.6743C59.5316 47.6743 59.3066 47.9004 58.7591 47.9004C58.0054 47.9908 57.3679 47.7467 56.9854 46.8378C56.9067 46.6478 56.7679 46.4851 56.6329 46.3449C56.5542 46.259 56.4304 46.2409 56.3292 46.1911C56.3104 46.2318 56.2879 46.268 56.2654 46.3087C56.3254 46.3946 56.3742 46.5077 56.4492 46.5574C56.7942 46.8061 56.9854 47.0684 57.2217 47.5748C57.4279 47.9095 57.7504 48.0225 57.9417 48.2576C58.5491 48.2486 58.7216 48.3345 59.0291 48.3797ZM68.839 50.9708C68.839 50.9708 68.749 51.6219 68.9177 51.9656C68.9177 51.9656 69.2927 51.9565 69.784 51.9746C70.2752 51.9882 70.759 52.1646 71.2502 52.2459C71.3777 52.2686 71.5614 52.2912 71.6252 52.2007C71.7114 52.0877 71.7527 51.8616 71.7339 51.6988C71.6777 51.2692 71.4452 51.0838 70.9727 51.129C70.264 51.1969 69.5552 51.423 68.839 50.9708ZM36.2032 45.1828C36.1995 45.6349 36.447 45.9967 36.6795 46.0781C37.0545 46.2047 37.0582 45.7118 37.0882 45.3681C37.092 45.3365 37.1707 45.0697 37.1707 45.0471C37.1445 44.83 37.122 44.7713 37.0207 44.6537C36.912 44.5271 36.6457 44.4773 36.5032 44.5542C36.3495 44.6356 36.207 44.8391 36.2032 45.1828ZM41.9632 47.6381L41.9744 49.6911L42.2257 49.7906L42.1919 47.8552L41.9632 47.6381ZM4.48624 30.9885C4.23875 30.6675 4.14125 30.3193 3.8675 30.0661C3.77376 29.9801 3.64626 30.0977 3.56001 29.9801C3.40251 29.7631 3.24876 29.5325 3.08002 29.5234C2.97877 29.5189 2.86252 29.6862 2.75752 29.7224C2.55878 29.7902 2.31503 29.8852 2.20253 30.0842C2.06378 30.3419 2.08253 30.6765 2.01878 30.9704C1.89129 31.5447 2.00753 32.0376 2.45003 32.2727C3.03877 32.5848 3.49626 33.1907 4.21625 32.5486C4.44499 32.3451 4.68874 32.5848 4.69999 31.816C4.70749 31.3548 4.63624 31.2011 4.48624 30.9885ZM91.7811 56.9397C91.7886 57.0256 91.8674 57.107 91.9236 57.1205C92.2649 57.2291 92.4749 57.2924 92.6249 57.8214C92.6586 57.9345 92.8499 57.9797 93.0561 58.1199C93.1799 58.2058 93.2249 58.4364 93.3486 58.4952C93.4086 58.5223 93.5324 58.5223 93.5886 58.5269C93.9711 58.5721 94.5111 58.8117 94.8373 58.9881C94.8673 59.0062 95.1036 58.8524 95.2986 58.8479C95.4073 58.8434 95.4786 58.9836 95.5498 58.9926C95.7073 59.0107 95.8198 58.7213 95.9586 58.5585C95.9886 58.5269 95.8723 58.1651 95.7823 58.138C95.3736 57.9978 95.2236 57.9119 95.0023 57.8486C94.7736 57.7898 94.1136 57.9164 93.9711 57.7355C93.3899 56.9894 92.6399 56.7904 91.8224 56.8221C91.7924 56.8221 91.7774 56.899 91.7811 56.9397ZM3.69126 26.6792C3.62001 26.2677 3.17002 26.0144 2.87377 26.2134C2.63002 26.3762 2.52878 26.5164 2.22503 26.7063C1.96628 26.8691 1.57629 27.1087 1.69254 27.6333C1.81629 28.1804 2.11628 28.5196 2.49878 28.5241C3.31626 28.5286 3.87125 27.674 3.69126 26.6792ZM10.9249 36.8444C10.7449 36.4555 10.3399 36.4058 10.1599 36.4058C9.99866 36.4058 10.0362 36.5957 9.78116 36.5912C9.23742 36.5731 9.16992 36.7811 9.16242 36.867C9.07992 37.8573 9.24117 38.0201 9.79241 38.0382C10.2462 38.0472 10.7336 37.9658 11.0636 37.5272C11.2511 37.2785 11.3261 37.283 11.4499 37.1473C11.3074 37.0433 11.0411 37.084 10.9249 36.8444ZM79.3538 57.4642C79.6651 57.7627 80.0101 58.0114 80.3551 58.2375C80.5463 58.3641 80.7976 58.1334 80.7901 57.8893C80.7901 57.7988 80.7001 57.6767 80.6963 57.6044C80.6663 57.107 80.6888 57.0798 80.1676 56.8447C79.9801 56.7543 79.8151 56.6005 79.6351 56.483C79.3088 56.2704 79.2113 56.492 79.1026 56.6096C79.3051 56.6593 79.0013 57.2291 79.3538 57.4642ZM1.2388 27.4976C1.1113 26.9957 0.792553 26.8465 0.432558 26.7877C0.132563 26.7334 -0.0586839 27.154 0.0163149 27.3891C0.132563 27.7735 0.627555 28.2166 0.863802 28.1488C1.2988 28.1533 1.37004 28.0086 1.2388 27.4976ZM87.9674 54.4798C87.8099 54.5024 87.6974 54.6245 87.8474 54.837C88.0912 55.1852 88.9612 55.4384 89.4824 55.2937C89.5987 55.262 89.6324 55.1309 89.7112 55.0631C89.1599 54.6606 88.6012 54.4029 87.9674 54.4798ZM30.4808 43.6498C30.4246 43.8669 30.7771 43.9935 31.2346 44.2603C31.6696 44.518 32.2021 44.9114 32.4721 45.1194C31.9433 44.4954 30.6121 43.1253 30.4808 43.6498ZM95.9961 57.7491C95.6436 57.5773 94.7848 57.1432 94.7848 57.1432L94.5411 57.3783L93.9936 57.2381L94.0423 57.419C94.0461 57.419 95.3248 57.7943 95.9961 57.7491ZM78.6151 57.4642C78.1876 57.1025 77.7601 56.9216 77.1939 56.9532C77.5314 57.4054 78.5401 57.8395 78.6151 57.4642ZM13.4486 27.5745C13.4411 27.258 13.4411 27.068 13.2574 27.0454C13.0774 27.0454 12.9724 27.258 12.9311 27.4027C12.8336 27.7644 13.1336 28.0222 13.5386 27.9363C13.4936 27.8368 13.4524 27.7418 13.4486 27.5745ZM90.2474 55.5107C90.7649 55.9584 91.0461 56.1709 91.5374 55.8047C91.1399 55.6871 90.7761 55.452 90.2024 55.4248C90.2024 55.4248 90.2212 55.4836 90.2474 55.5107ZM76.8039 56.7859C76.8339 56.5779 76.3426 56.5734 76.3426 56.5734C76.6239 57.0798 76.7739 56.9939 76.8039 56.7859ZM22.7635 30.3148V26.8058L22.531 30.1836L22.7635 30.3148Z" fill="#D7D7D7"/>
</svg>
