<svg width="83" height="82" viewBox="0 0 83 82" fill="none" xmlns="http://www.w3.org/2000/svg">
<path d="M10.758 0C5.3737 0 0.996094 4.3776 0.996094 9.7619V72.2381C0.996094 77.6224 5.3737 82 10.758 82H73.2342C78.6185 82 82.9961 77.6224 82.9961 72.2381V9.7619C82.9961 4.3776 78.6185 0 73.2342 0H10.758ZM24.4247 9.7619H57.6151L56.311 15.619H71.2818L69.3294 29.2857L71.2818 62.4762L43.9485 60.5238V70.2857L24.4247 74.1905V63.0329L12.7104 66.381L14.6628 31.2381L12.7104 15.619H24.4247V9.7619ZM28.3294 13.6667V69.3248L40.0437 67.155V46.8571H49.8056V35.1429H40.0437V25.381H50.145L52.7494 13.6667H28.3294Z" fill="#D7D7D7"/>
</svg>
