<svg width="83" height="82" viewBox="0 0 83 82" fill="none" xmlns="http://www.w3.org/2000/svg">
<path d="M13.2961 0C12.5193 0 11.8106 0.396751 11.4623 1.0301C11.114 1.66344 11.186 2.4169 11.6545 2.98109L17.3961 9.93697V72.063L9.60449 79.0189C9.14004 79.5831 9.06797 80.3366 9.4123 80.9699C9.76064 81.6032 10.4693 82 11.2461 82H70.6961C71.3207 82 71.9093 81.7416 72.2977 81.3011L82.5477 71.983C83.0401 71.4224 83.1322 70.658 82.7919 70.0101C82.4476 69.3659 81.7349 68.9545 80.9461 68.9545H37.8961V1.86364C37.8961 0.83354 36.9792 0 35.8461 0H13.2961ZM41.9961 7.45455V11.1818C62.3439 11.1818 78.8961 26.2292 78.8961 44.7273C78.8961 52.4512 75.9812 59.549 71.1405 65.2273H76.2015C80.4856 59.3415 82.9961 52.2983 82.9961 44.7273C82.9961 24.1763 64.6021 7.45455 41.9961 7.45455ZM41.9961 14.9091V65.2273H65.7553C71.3447 59.8802 74.7961 52.6696 74.7961 44.7273C74.7961 28.2858 60.0817 14.9091 41.9961 14.9091ZM13.2961 18.1523C6.21318 24.4784 1.62471 33.1087 1.05615 42.6998C1.01611 43.3696 0.996094 44.0466 0.996094 44.7273C0.996094 45.8265 1.04814 46.9185 1.15225 47.9923C2.0251 57.0884 6.51748 65.2528 13.2961 71.3023V65.7623C8.1791 60.004 5.09609 52.6914 5.09609 44.7273C5.09609 36.7631 8.1791 29.4506 13.2961 23.6922V18.1523ZM13.2961 30.3241C10.6896 34.5974 9.19609 39.504 9.19609 44.7273C9.19609 49.9506 10.6896 54.8572 13.2961 59.1304V30.3241Z" fill="#D7D7D7"/>
</svg>
