<svg width="83" height="82" viewBox="0 0 83 82" fill="none" xmlns="http://www.w3.org/2000/svg">
<path d="M41.9961 0C39.2987 0 36.6435 0.717282 34.3339 2.0396L8.43914 16.8807C3.84238 19.5089 0.996094 24.3711 0.996094 29.5618V58.8718H7.46978V29.5618C7.46978 26.5996 9.11068 23.8208 11.7238 22.3069L37.6185 7.46575C38.9756 6.68823 40.4844 6.30769 41.9961 6.30769C43.5077 6.30769 45.0166 6.68823 46.3765 7.46575L72.2712 22.3069C74.8815 23.8208 76.5224 26.5996 76.5224 29.5618V58.8718H82.9961V29.5618C82.9961 24.3711 80.1498 19.5089 75.553 16.8807L49.6583 2.0396C47.329 0.717282 44.6935 0 41.9961 0ZM40.6783 12.8508L39.9618 14.5975L38.1608 15.3011L39.9618 16.0047L40.6783 17.7513L41.3976 16.0047L43.1987 15.3011L41.3976 14.5975L40.6783 12.8508ZM30.0237 21.3104C29.6416 21.3022 29.2482 21.4117 28.8829 21.6717C17.908 29.4907 11.5102 47.2201 25.1797 60.5391C26.1575 61.4918 27.1662 62.3186 28.1833 63.0769H0.996094V65.1795H7.46978V67.2821H0.996094V69.3846H11.7856V71.4872H3.15399V73.5897H22.575V75.6923H11.7856V77.7949H31.2066V79.8974H29.0487V82H54.9435V79.8974H52.7856V77.7949H72.2066V75.6923H61.4171V73.5897H80.8382V71.4872H72.2066V69.3846H82.9961V67.2821H76.5224V65.1795H82.9961V63.0769H58.5512C61.0968 61.333 63.3306 59.2469 65.0698 56.9308C66.1404 55.5071 64.7439 53.6126 62.9822 54.0096C55.4492 55.7179 45.705 55.3237 38.1186 47.9319C30.5323 40.5401 30.1277 31.0402 31.8782 23.7031C32.1844 22.4191 31.1673 21.3323 30.0237 21.3104ZM60.3382 23.6183L59.6217 25.3704L57.8178 26.074L59.6217 26.7721L60.3382 28.5242L61.0547 26.7721L62.8586 26.074L61.0547 25.3704L60.3382 23.6183ZM38.7593 25.1103L37.8039 27.4538L35.4016 28.3846L37.8039 29.3154L38.7593 31.6562L39.7146 29.3154L42.1169 28.3846L39.7146 27.4538L38.7593 25.1103ZM13.0781 28.0315L12.3616 29.7891L10.5633 30.4872L12.3616 31.1853L13.0781 32.9429L13.8002 31.1853L15.5984 30.4872L13.8002 29.7891L13.0781 28.0315ZM47.3908 32.472L46.6743 34.2242L44.8705 34.9278L46.6743 35.6259L47.3908 37.378L48.1073 35.6259L49.9112 34.9278L48.1073 34.2242L47.3908 32.472ZM67.0282 36.9153L65.8313 39.8283L62.8333 41L65.8313 42.169L67.0282 45.0847L68.228 42.169L71.2232 41L68.228 39.8283L67.0282 36.9153ZM51.7066 40.0445L50.7513 42.3798L48.349 43.3106L50.7513 44.2469L51.7066 46.5849L52.6619 44.2469L55.0643 43.3106L52.6619 42.3798L51.7066 40.0445ZM12.9853 49.9934L12.0272 52.3287L9.62767 53.2622L12.0272 54.1985L12.9853 56.5338L13.9435 54.1985L16.3402 53.2622L13.9435 52.3287L12.9853 49.9934Z" fill="#D7D7D7"/>
</svg>
