<svg width="128" height="47" viewBox="0 0 128 47" fill="none" xmlns="http://www.w3.org/2000/svg">
<path d="M0 0L5.12 12.8H0L5.12 25.6H0L15.36 46.08L13.66 40.96H114.35L112.64 46.08L128 25.6H122.88L128 12.8H122.88L128 0H0ZM11.7 5.12H116.29L112.64 17.92H117.76L112.64 30.72H117.76L116.05 35.84H11.94L10.24 30.72H15.36L10.24 17.92H15.36L11.7 5.12ZM20.48 10.24V23.04H33.28V25.6H20.48V30.72H38.4V17.92H25.6V15.36H38.4V10.24H20.48ZM40.96 10.24V30.72H46.08V21.33L51.2 30.72L56.32 21.33V30.72H61.44V10.24H56.32L51.2 20.48L46.08 10.24H40.96ZM64 10.24V30.72H69.12V10.24H64ZM71.68 10.24V15.36H76.8V30.72H81.92V15.36H87.04V10.24H71.68ZM89.6 10.24V30.72H107.52V25.6H94.72V23.04H107.52V17.92H94.72V15.36H107.52V10.24H89.6Z" fill="#d7d7d7"/>
</svg>
