<svg width="82" height="69" viewBox="0 0 82 69" fill="none" xmlns="http://www.w3.org/2000/svg">
<path d="M3.3196 0.698239C2.82457 0.0830933 1.98739 -0.157141 1.24849 0.104933C0.498668 0.367006 0 1.06951 0 1.86301V35.4085C0 35.8416 0.149236 36.2602 0.42587 36.5951L26.5168 68.2769C26.8699 68.7028 27.3976 68.9539 27.9545 68.9539H54.0455C54.7625 68.9539 55.4141 68.5426 55.7235 67.8983C56.0365 67.2541 55.9491 66.4861 55.4978 65.9255L3.3196 0.698239ZM80.7624 1.97221C80.0235 1.69922 79.1936 1.93581 78.695 2.54732L45.1495 43.5473C44.6909 44.1079 44.5999 44.8759 44.9056 45.5274C45.215 46.1753 45.8702 46.5903 46.5909 46.5903H72.6818C73.2496 46.5903 73.7847 46.3319 74.1378 45.8914L81.5923 36.5732C81.858 36.242 82 35.8343 82 35.4085V3.72665C82 2.93679 81.505 2.23428 80.7624 1.97221Z" fill="#D7D7D7"/>
</svg>
